<svg xmlns="http://www.w3.org/2000/svg" width="1125" viewBox="0 0 1125 225" height="225" version="1.0"><g><g><g><path d="M 4.359375 1.3125 L 4.359375 -22.3125 L 5.9375 -22.3125 C 8.226562 -14.65625 11.304688 -9.285156 15.171875 -6.203125 C 19.046875 -3.117188 23.890625 -1.578125 29.703125 -1.578125 C 38.671875 -1.578125 43.15625 -4.4375 43.15625 -10.15625 C 43.15625 -12.625 42.054688 -14.472656 39.859375 -15.703125 C 36.429688 -17.640625 32.03125 -19.132812 26.65625 -20.1875 C 20.675781 -21.769531 15.660156 -23.882812 11.609375 -26.53125 C 6.773438 -29.695312 4.359375 -34.710938 4.359375 -41.578125 C 4.359375 -48.441406 6.46875 -53.914062 10.6875 -58 C 14.914062 -62.09375 20.546875 -64.140625 27.578125 -64.140625 C 31.890625 -64.140625 36.335938 -63.128906 40.921875 -61.109375 C 42.585938 -60.398438 43.859375 -60.046875 44.734375 -60.046875 C 45.617188 -60.046875 46.367188 -60.351562 46.984375 -60.96875 C 47.597656 -61.59375 48.347656 -62.738281 49.234375 -64.40625 L 50.6875 -64.40625 L 50.6875 -44.21875 L 49.09375 -44.21875 C 44.601562 -55.65625 37.65625 -61.375 28.25 -61.375 C 24.113281 -61.375 21.03125 -60.644531 19 -59.1875 C 16.976562 -57.738281 15.96875 -55.914062 15.96875 -53.71875 C 15.96875 -52.394531 16.273438 -51.359375 16.890625 -50.609375 C 17.503906 -49.867188 17.988281 -49.320312 18.34375 -48.96875 C 18.695312 -48.613281 19.269531 -48.238281 20.0625 -47.84375 C 20.851562 -47.445312 21.507812 -47.140625 22.03125 -46.921875 C 22.5625 -46.703125 23.378906 -46.414062 24.484375 -46.0625 C 25.585938 -45.707031 26.398438 -45.488281 26.921875 -45.40625 C 32.910156 -43.90625 37.222656 -42.601562 39.859375 -41.5 C 42.492188 -40.40625 45 -39.066406 47.375 -37.484375 C 52.21875 -34.140625 54.640625 -28.75 54.640625 -21.3125 C 54.640625 -13.875 52.4375 -8.242188 48.03125 -4.421875 C 43.632812 -0.597656 37.609375 1.3125 29.953125 1.3125 C 24.503906 1.3125 19.226562 0.0390625 14.125 -2.5 C 13.0625 -3.207031 12.222656 -3.5625 11.609375 -3.5625 C 9.679688 -3.5625 7.789062 -1.9375 5.9375 1.3125 Z M 4.359375 1.3125" transform="translate(45.775 107.244)"/></g></g></g><g><g><g><path d="M 49.5 -35.5 C 49.5 -44.5625 49.054688 -50.65625 48.171875 -53.78125 C 47.296875 -56.90625 45.582031 -58.46875 43.03125 -58.46875 C 40.476562 -58.46875 38.1875 -56.816406 36.15625 -53.515625 C 34.132812 -50.210938 33.125 -45.789062 33.125 -40.25 L 33.125 -16.109375 C 33.125 -12.316406 33.867188 -9.097656 35.359375 -6.453125 C 36.859375 -3.816406 39.0625 -2.5 41.96875 -2.5 C 44.875 -2.5 46.851562 -4.4375 47.90625 -8.3125 C 48.96875 -12.1875 49.5 -18.960938 49.5 -28.640625 Z M 32.859375 -62.828125 L 32.859375 -52.390625 C 36.296875 -60.222656 42.367188 -64.140625 51.078125 -64.140625 C 58.640625 -64.140625 64.507812 -61.410156 68.6875 -55.953125 C 72.875 -50.503906 74.96875 -42.234375 74.96875 -31.140625 C 74.96875 -20.054688 72.703125 -11.875 68.171875 -6.59375 C 63.640625 -1.320312 56.84375 1.3125 47.78125 1.3125 C 43.550781 1.3125 40.378906 0.785156 38.265625 -0.265625 C 36.160156 -1.316406 34.445312 -2.941406 33.125 -5.140625 L 33.125 29.03125 L 50.15625 29.03125 L 50.15625 31.40625 L 1.3125 31.40625 L 1.3125 29.03125 L 8.578125 29.03125 L 8.578125 -60.453125 L 1.578125 -60.453125 L 1.578125 -62.828125 Z M 32.859375 -62.828125" transform="translate(108.2 107.244)"/></g></g></g><g><g><g><path d="M 0.796875 -98.984375 L 33.125 -98.984375 L 33.125 -2.375 L 40.515625 -2.375 L 40.515625 0 L 1.3125 0 L 1.3125 -2.375 L 8.578125 -2.375 L 8.578125 -96.609375 L 0.796875 -96.609375 Z M 0.796875 -98.984375" transform="translate(190.95 107.244)"/></g></g></g><g><g><g><path d="M 33 -31.015625 L 36.828125 -31.015625 L 36.828125 -41.171875 C 36.828125 -49.535156 36.363281 -55.144531 35.4375 -58 C 34.507812 -60.863281 32.726562 -62.296875 30.09375 -62.296875 C 28.507812 -62.296875 27.078125 -61.875 25.796875 -61.03125 C 24.523438 -60.195312 23.890625 -59.054688 23.890625 -57.609375 C 23.890625 -56.160156 24.15625 -54.6875 24.6875 -53.1875 L 27.984375 -53.1875 C 28.679688 -51.34375 29.03125 -49.117188 29.03125 -46.515625 C 29.03125 -43.921875 27.929688 -41.675781 25.734375 -39.78125 C 23.535156 -37.894531 20.765625 -36.953125 17.421875 -36.953125 C 9.859375 -36.953125 6.078125 -40.601562 6.078125 -47.90625 C 6.078125 -58.726562 15.269531 -64.140625 33.65625 -64.140625 C 44.125 -64.140625 51.359375 -62.359375 55.359375 -58.796875 C 59.367188 -55.234375 61.375 -48.703125 61.375 -39.203125 L 61.375 -12.40625 C 61.375 -7.832031 62.648438 -5.546875 65.203125 -5.546875 C 68.191406 -5.546875 69.953125 -10.078125 70.484375 -19.140625 L 72.453125 -19 C 72.109375 -11.257812 70.660156 -5.9375 68.109375 -3.03125 C 65.554688 -0.132812 61.375 1.3125 55.5625 1.3125 C 45.007812 1.3125 38.941406 -1.941406 37.359375 -8.453125 C 36.210938 -5.109375 34.492188 -2.644531 32.203125 -1.0625 C 29.910156 0.519531 26.566406 1.3125 22.171875 1.3125 C 9.148438 1.3125 2.640625 -4.007812 2.640625 -14.65625 C 2.640625 -20.894531 5.125 -25.179688 10.09375 -27.515625 C 15.0625 -29.847656 22.695312 -31.015625 33 -31.015625 Z M 27.71875 -14.78125 C 27.71875 -10.207031 27.957031 -7.257812 28.4375 -5.9375 C 28.925781 -4.613281 29.851562 -3.953125 31.21875 -3.953125 C 32.582031 -3.953125 33.859375 -5.070312 35.046875 -7.3125 C 36.234375 -9.5625 36.828125 -12.664062 36.828125 -16.625 L 36.828125 -28.90625 L 35.90625 -28.90625 C 30.445312 -28.90625 27.71875 -24.898438 27.71875 -16.890625 Z M 27.71875 -14.78125" transform="translate(237.802 107.244)"/></g></g></g><g><g><g><path d="M 4.359375 1.3125 L 4.359375 -22.3125 L 5.9375 -22.3125 C 8.226562 -14.65625 11.304688 -9.285156 15.171875 -6.203125 C 19.046875 -3.117188 23.890625 -1.578125 29.703125 -1.578125 C 38.671875 -1.578125 43.15625 -4.4375 43.15625 -10.15625 C 43.15625 -12.625 42.054688 -14.472656 39.859375 -15.703125 C 36.429688 -17.640625 32.03125 -19.132812 26.65625 -20.1875 C 20.675781 -21.769531 15.660156 -23.882812 11.609375 -26.53125 C 6.773438 -29.695312 4.359375 -34.710938 4.359375 -41.578125 C 4.359375 -48.441406 6.46875 -53.914062 10.6875 -58 C 14.914062 -62.09375 20.546875 -64.140625 27.578125 -64.140625 C 31.890625 -64.140625 36.335938 -63.128906 40.921875 -61.109375 C 42.585938 -60.398438 43.859375 -60.046875 44.734375 -60.046875 C 45.617188 -60.046875 46.367188 -60.351562 46.984375 -60.96875 C 47.597656 -61.59375 48.347656 -62.738281 49.234375 -64.40625 L 50.6875 -64.40625 L 50.6875 -44.21875 L 49.09375 -44.21875 C 44.601562 -55.65625 37.65625 -61.375 28.25 -61.375 C 24.113281 -61.375 21.03125 -60.644531 19 -59.1875 C 16.976562 -57.738281 15.96875 -55.914062 15.96875 -53.71875 C 15.96875 -52.394531 16.273438 -51.359375 16.890625 -50.609375 C 17.503906 -49.867188 17.988281 -49.320312 18.34375 -48.96875 C 18.695312 -48.613281 19.269531 -48.238281 20.0625 -47.84375 C 20.851562 -47.445312 21.507812 -47.140625 22.03125 -46.921875 C 22.5625 -46.703125 23.378906 -46.414062 24.484375 -46.0625 C 25.585938 -45.707031 26.398438 -45.488281 26.921875 -45.40625 C 32.910156 -43.90625 37.222656 -42.601562 39.859375 -41.5 C 42.492188 -40.40625 45 -39.066406 47.375 -37.484375 C 52.21875 -34.140625 54.640625 -28.75 54.640625 -21.3125 C 54.640625 -13.875 52.4375 -8.242188 48.03125 -4.421875 C 43.632812 -0.597656 37.609375 1.3125 29.953125 1.3125 C 24.503906 1.3125 19.226562 0.0390625 14.125 -2.5 C 13.0625 -3.207031 12.222656 -3.5625 11.609375 -3.5625 C 9.679688 -3.5625 7.789062 -1.9375 5.9375 1.3125 Z M 4.359375 1.3125" transform="translate(315.404 107.244)"/></g></g></g><g><g><g><path d="M 1.3125 -98.984375 L 33.125 -98.984375 L 33.125 -50.6875 C 34.53125 -54.726562 36.6875 -57.976562 39.59375 -60.4375 C 42.5 -62.90625 46.898438 -64.140625 52.796875 -64.140625 C 66.429688 -64.140625 73.25 -56.796875 73.25 -42.109375 L 73.25 -2.375 L 80.640625 -2.375 L 80.640625 0 L 43.296875 0 L 43.296875 -2.375 L 48.703125 -2.375 L 48.703125 -45.265625 C 48.703125 -50.546875 48.347656 -53.957031 47.640625 -55.5 C 46.941406 -57.039062 45.664062 -57.8125 43.8125 -57.8125 C 41 -57.8125 38.515625 -55.960938 36.359375 -52.265625 C 34.203125 -48.566406 33.125 -44.078125 33.125 -38.796875 L 33.125 -2.375 L 38.796875 -2.375 L 38.796875 0 L 1.3125 0 L 1.3125 -2.375 L 8.578125 -2.375 L 8.578125 -96.609375 L 1.3125 -96.609375 Z M 1.3125 -98.984375" transform="translate(377.83 107.244)"/></g></g></g><g fill="#53C154"><g><g><path d="M 81.875 35.9375 C 87.070312 35.9375 91.070312 33.441406 93.875 28.453125 C 96.6875 23.472656 98.09375 17.328125 98.09375 10.015625 C 98.09375 2.703125 95.285156 -4.710938 89.671875 -12.234375 C 81.609375 -3.015625 70.53125 1.59375 56.4375 1.59375 C 42.34375 1.59375 31.132812 -0.789062 22.8125 -5.5625 C 14.488281 -10.332031 10.328125 -17.859375 10.328125 -28.140625 C 10.328125 -35.242188 12.234375 -40.96875 16.046875 -45.3125 C 19.867188 -49.65625 26.285156 -52.832031 35.296875 -54.84375 C 25.960938 -63.320312 21.296875 -72.566406 21.296875 -82.578125 C 21.296875 -92.597656 24.820312 -100.175781 31.875 -105.3125 C 38.925781 -110.457031 47.695312 -113.03125 58.1875 -113.03125 C 68.675781 -113.03125 76.546875 -111.125 81.796875 -107.3125 C 87.046875 -103.5 89.671875 -98.359375 89.671875 -91.890625 C 89.671875 -80.660156 81.140625 -72.078125 64.078125 -66.140625 C 66.191406 -64.765625 70.054688 -62.328125 75.671875 -58.828125 C 87.441406 -51.191406 95.765625 -45.039062 100.640625 -40.375 C 102.222656 -47.90625 103.125 -55.644531 103.34375 -63.59375 L 90.78125 -63.59375 L 90.78125 -66.78125 L 118.4375 -66.78125 L 118.4375 -63.59375 L 107.3125 -63.59375 C 107.101562 -53.632812 106.097656 -44.675781 104.296875 -36.71875 C 108.847656 -31.632812 112.289062 -26.757812 114.625 -22.09375 C 116.957031 -17.4375 118.125 -11.554688 118.125 -4.453125 C 118.125 6.992188 114.09375 17.222656 106.03125 26.234375 C 97.976562 35.242188 88.8125 39.75 78.53125 39.75 C 71.644531 39.75 66.289062 38.316406 62.46875 35.453125 C 58.65625 32.585938 56.75 28.929688 56.75 24.484375 C 56.75 20.035156 57.992188 16.5625 60.484375 14.0625 C 62.984375 11.570312 66.140625 10.328125 69.953125 10.328125 C 78.429688 10.328125 82.671875 14.144531 82.671875 21.78125 C 82.671875 23.375 82.351562 25.28125 81.71875 27.5 L 76.15625 27.5 C 74.25 33.125 76.15625 35.9375 81.875 35.9375 Z M 60.25 -2.546875 C 71.488281 -2.546875 80.394531 -6.890625 86.96875 -15.578125 C 82.09375 -20.671875 75.253906 -26.179688 66.453125 -32.109375 C 51.296875 -42.078125 41.648438 -48.863281 37.515625 -52.46875 C 35.929688 -49.070312 35.140625 -42.179688 35.140625 -31.796875 C 35.140625 -21.410156 37.203125 -13.9375 41.328125 -9.375 C 45.460938 -4.820312 51.769531 -2.546875 60.25 -2.546875 Z M 57.390625 -109.703125 C 53.367188 -109.703125 49.925781 -108.457031 47.0625 -105.96875 C 44.195312 -103.476562 42.765625 -99.53125 42.765625 -94.125 C 42.765625 -88.71875 44.035156 -84.265625 46.578125 -80.765625 C 49.117188 -77.265625 53.992188 -73.023438 61.203125 -68.046875 C 65.660156 -70.378906 68.441406 -73.1875 69.546875 -76.46875 C 70.660156 -79.757812 71.21875 -84.582031 71.21875 -90.9375 C 71.21875 -103.445312 66.609375 -109.703125 57.390625 -109.703125 Z M 57.390625 -109.703125" transform="translate(491.336 117.744)"/></g></g></g><g><g><g><path d="M 28.109375 -27.328125 C 28.109375 -18.085938 28.59375 -11.945312 29.5625 -8.90625 C 30.53125 -5.875 32.3125 -4.359375 34.90625 -4.359375 C 37.5 -4.359375 39.742188 -5.5 41.640625 -7.78125 C 43.535156 -10.070312 44.484375 -13.460938 44.484375 -17.953125 L 44.484375 -46.71875 C 44.484375 -50.5 43.734375 -53.707031 42.234375 -56.34375 C 40.734375 -58.988281 38.53125 -60.3125 35.625 -60.3125 C 32.726562 -60.3125 30.75 -58.375 29.6875 -54.5 C 28.632812 -50.632812 28.109375 -43.863281 28.109375 -34.1875 Z M 46.1875 0 L 44.75 -9.234375 C 41.75 -2.203125 35.675781 1.3125 26.53125 1.3125 C 18.957031 1.3125 13.082031 -1.410156 8.90625 -6.859375 C 4.726562 -12.316406 2.640625 -20.457031 2.640625 -31.28125 C 2.640625 -53.1875 11.347656 -64.140625 28.765625 -64.140625 C 36.515625 -64.140625 41.617188 -61.984375 44.078125 -57.671875 L 44.078125 -96.609375 L 36.03125 -96.609375 L 36.03125 -98.984375 L 69.03125 -98.984375 L 69.03125 -2.375 L 75.5 -2.375 L 75.5 0 Z M 46.1875 0" transform="translate(642.791 118.957)"/></g></g></g><g><g><g><path d="M 36.03125 1.3125 C 24.675781 1.3125 16.160156 -1.609375 10.484375 -7.453125 C 4.816406 -13.304688 1.984375 -21.445312 1.984375 -31.875 C 1.984375 -42.300781 5.171875 -50.285156 11.546875 -55.828125 C 17.929688 -61.367188 26.050781 -64.140625 35.90625 -64.140625 C 55.875 -64.140625 65.460938 -54.109375 64.671875 -34.046875 L 27.453125 -34.046875 L 27.453125 -28.90625 C 27.453125 -20.28125 28.550781 -13.765625 30.75 -9.359375 C 32.945312 -4.960938 36.773438 -2.765625 42.234375 -2.765625 C 52.441406 -2.765625 59.128906 -8.222656 62.296875 -19.140625 L 64.671875 -18.734375 C 63.003906 -12.398438 59.988281 -7.472656 55.625 -3.953125 C 51.269531 -0.441406 44.738281 1.3125 36.03125 1.3125 Z M 27.578125 -36.6875 L 41.171875 -36.6875 L 41.171875 -43.15625 C 41.171875 -50.28125 40.753906 -55.140625 39.921875 -57.734375 C 39.085938 -60.335938 37.414062 -61.640625 34.90625 -61.640625 C 32.394531 -61.640625 30.546875 -60.253906 29.359375 -57.484375 C 28.171875 -54.710938 27.578125 -49.9375 27.578125 -43.15625 Z M 27.578125 -36.6875" transform="translate(725.54 118.957)"/></g></g></g><g><g><g><path d="M 4.359375 1.3125 L 4.359375 -22.3125 L 5.9375 -22.3125 C 8.226562 -14.65625 11.304688 -9.285156 15.171875 -6.203125 C 19.046875 -3.117188 23.890625 -1.578125 29.703125 -1.578125 C 38.671875 -1.578125 43.15625 -4.4375 43.15625 -10.15625 C 43.15625 -12.625 42.054688 -14.472656 39.859375 -15.703125 C 36.429688 -17.640625 32.03125 -19.132812 26.65625 -20.1875 C 20.675781 -21.769531 15.660156 -23.882812 11.609375 -26.53125 C 6.773438 -29.695312 4.359375 -34.710938 4.359375 -41.578125 C 4.359375 -48.441406 6.46875 -53.914062 10.6875 -58 C 14.914062 -62.09375 20.546875 -64.140625 27.578125 -64.140625 C 31.890625 -64.140625 36.335938 -63.128906 40.921875 -61.109375 C 42.585938 -60.398438 43.859375 -60.046875 44.734375 -60.046875 C 45.617188 -60.046875 46.367188 -60.351562 46.984375 -60.96875 C 47.597656 -61.59375 48.347656 -62.738281 49.234375 -64.40625 L 50.6875 -64.40625 L 50.6875 -44.21875 L 49.09375 -44.21875 C 44.601562 -55.65625 37.65625 -61.375 28.25 -61.375 C 24.113281 -61.375 21.03125 -60.644531 19 -59.1875 C 16.976562 -57.738281 15.96875 -55.914062 15.96875 -53.71875 C 15.96875 -52.394531 16.273438 -51.359375 16.890625 -50.609375 C 17.503906 -49.867188 17.988281 -49.320312 18.34375 -48.96875 C 18.695312 -48.613281 19.269531 -48.238281 20.0625 -47.84375 C 20.851562 -47.445312 21.507812 -47.140625 22.03125 -46.921875 C 22.5625 -46.703125 23.378906 -46.414062 24.484375 -46.0625 C 25.585938 -45.707031 26.398438 -45.488281 26.921875 -45.40625 C 32.910156 -43.90625 37.222656 -42.601562 39.859375 -41.5 C 42.492188 -40.40625 45 -39.066406 47.375 -37.484375 C 52.21875 -34.140625 54.640625 -28.75 54.640625 -21.3125 C 54.640625 -13.875 52.4375 -8.242188 48.03125 -4.421875 C 43.632812 -0.597656 37.609375 1.3125 29.953125 1.3125 C 24.503906 1.3125 19.226562 0.0390625 14.125 -2.5 C 13.0625 -3.207031 12.222656 -3.5625 11.609375 -3.5625 C 9.679688 -3.5625 7.789062 -1.9375 5.9375 1.3125 Z M 4.359375 1.3125" transform="translate(798.788 118.957)"/></g></g></g><g><g><g><path d="M 20.71875 -71.9375 C 16.050781 -71.9375 12.726562 -73.125 10.75 -75.5 C 8.769531 -77.875 7.78125 -80.820312 7.78125 -84.34375 C 7.78125 -87.863281 8.859375 -90.765625 11.015625 -93.046875 C 13.171875 -95.335938 16.445312 -96.484375 20.84375 -96.484375 C 25.25 -96.484375 28.59375 -95.445312 30.875 -93.375 C 33.164062 -91.3125 34.3125 -88.363281 34.3125 -84.53125 C 34.3125 -80.707031 33.210938 -77.648438 31.015625 -75.359375 C 28.816406 -73.078125 25.382812 -71.9375 20.71875 -71.9375 Z M 0.796875 -62.828125 L 33.125 -62.828125 L 33.125 -2.375 L 40.515625 -2.375 L 40.515625 0 L 1.3125 0 L 1.3125 -2.375 L 8.578125 -2.375 L 8.578125 -60.453125 L 0.796875 -60.453125 Z M 0.796875 -62.828125" transform="translate(861.213 118.957)"/></g></g></g><g><g><g><path d="M 54.25 -69.6875 L 57.9375 -71.9375 C 58.46875 -74.65625 57.414062 -76.015625 54.78125 -76.015625 C 50.988281 -76.015625 49.09375 -73.113281 49.09375 -67.3125 C 49.09375 -65.019531 49.398438 -62.378906 50.015625 -59.390625 C 56.703125 -54.898438 60.046875 -49.15625 60.046875 -42.15625 C 60.046875 -35.164062 57.625 -29.734375 52.78125 -25.859375 C 47.945312 -21.992188 41.394531 -20.0625 33.125 -20.0625 C 29.695312 -20.0625 26.132812 -20.414062 22.4375 -21.125 C 18.5625 -18.65625 16.625 -16.800781 16.625 -15.5625 C 16.625 -14.332031 19.441406 -13.71875 25.078125 -13.71875 L 38.546875 -13.71875 C 58.515625 -13.71875 68.5 -6.550781 68.5 7.78125 C 68.5 15.53125 65.484375 21.671875 59.453125 26.203125 C 53.429688 30.734375 44.039062 33 31.28125 33 C 9.550781 33 -1.3125 28.289062 -1.3125 18.875 C -1.3125 13.769531 2.070312 10.25 8.84375 8.3125 L 16.765625 11.875 C 16.054688 14.425781 15.703125 16.847656 15.703125 19.140625 C 15.703125 26.703125 21.332031 30.484375 32.59375 30.484375 C 39.457031 30.484375 44.738281 29.207031 48.4375 26.65625 C 52.132812 24.101562 53.984375 20.9375 53.984375 17.15625 C 53.984375 13.375 52.859375 10.84375 50.609375 9.5625 C 48.367188 8.289062 43.90625 7.65625 37.21875 7.65625 L 24.421875 7.65625 C 17.285156 7.65625 12.175781 6.46875 9.09375 4.09375 C 6.019531 1.71875 4.484375 -1.207031 4.484375 -4.6875 C 4.484375 -8.164062 5.582031 -11.066406 7.78125 -13.390625 C 9.988281 -15.722656 13.90625 -18.609375 19.53125 -22.046875 C 9.320312 -24.941406 4.21875 -31.628906 4.21875 -42.109375 C 4.21875 -48.703125 6.59375 -54.019531 11.34375 -58.0625 C 16.101562 -62.113281 23.234375 -64.140625 32.734375 -64.140625 C 38.453125 -64.140625 43.332031 -63.039062 47.375 -60.84375 C 46.851562 -63.21875 46.59375 -65.375 46.59375 -67.3125 C 46.59375 -72.238281 47.910156 -75.800781 50.546875 -78 C 53.191406 -80.195312 56.140625 -81.296875 59.390625 -81.296875 C 62.648438 -81.296875 65.269531 -80.4375 67.25 -78.71875 C 69.226562 -77.007812 70.21875 -74.660156 70.21875 -71.671875 C 70.21875 -68.679688 69.425781 -66.457031 67.84375 -65 C 66.257812 -63.550781 64.34375 -62.828125 62.09375 -62.828125 C 59.851562 -62.828125 58.003906 -63.421875 56.546875 -64.609375 C 55.097656 -65.796875 54.332031 -67.488281 54.25 -69.6875 Z M 26.265625 -45 L 26.265625 -37.875 C 26.265625 -31.976562 26.769531 -27.972656 27.78125 -25.859375 C 28.789062 -23.753906 30.328125 -22.703125 32.390625 -22.703125 C 34.460938 -22.703125 35.960938 -23.734375 36.890625 -25.796875 C 37.816406 -27.867188 38.28125 -32.117188 38.28125 -38.546875 L 38.28125 -45 C 38.28125 -51.863281 37.835938 -56.375 36.953125 -58.53125 C 36.078125 -60.6875 34.601562 -61.765625 32.53125 -61.765625 C 30.46875 -61.765625 28.90625 -60.640625 27.84375 -58.390625 C 26.789062 -56.148438 26.265625 -51.6875 26.265625 -45 Z M 26.265625 -45" transform="translate(908.197 118.957)"/></g></g></g><g><g><g><path d="M 1.578125 -62.828125 L 33.390625 -62.828125 L 33.390625 -50.6875 C 34.796875 -54.726562 36.953125 -57.976562 39.859375 -60.4375 C 42.765625 -62.90625 47.164062 -64.140625 53.0625 -64.140625 C 66.695312 -64.140625 73.515625 -56.796875 73.515625 -42.109375 L 73.515625 -2.375 L 80.90625 -2.375 L 80.90625 0 L 43.5625 0 L 43.5625 -2.375 L 48.96875 -2.375 L 48.96875 -45.265625 C 48.96875 -50.546875 48.613281 -53.957031 47.90625 -55.5 C 47.207031 -57.039062 45.929688 -57.8125 44.078125 -57.8125 C 41.265625 -57.8125 38.78125 -55.960938 36.625 -52.265625 C 34.46875 -48.566406 33.390625 -44.078125 33.390625 -38.796875 L 33.390625 -2.375 L 39.0625 -2.375 L 39.0625 0 L 1.578125 0 L 1.578125 -2.375 L 8.84375 -2.375 L 8.84375 -60.453125 L 1.578125 -60.453125 Z M 1.578125 -62.828125" transform="translate(982.236 118.957)"/></g></g></g><g><g><g><path d="M 8.671875 -29.328125 L 8.671875 -17.796875 L 22.21875 -17.796875 L 22.21875 -14.171875 L 8.671875 -14.171875 L 8.671875 0 L 4.203125 0 L 4.203125 -32.953125 L 24.515625 -32.953125 L 24.515625 -29.328125 Z M 8.671875 -29.328125" transform="translate(43.19 215.35)"/></g></g></g><g><g><g><path d="M 34.65625 -16.46875 C 34.65625 -14 34.265625 -11.734375 33.484375 -9.671875 C 32.703125 -7.609375 31.597656 -5.832031 30.171875 -4.34375 C 28.742188 -2.851562 27.03125 -1.695312 25.03125 -0.875 C 23.03125 -0.0625 20.820312 0.34375 18.40625 0.34375 C 15.976562 0.34375 13.765625 -0.0625 11.765625 -0.875 C 9.773438 -1.695312 8.066406 -2.851562 6.640625 -4.34375 C 5.222656 -5.832031 4.117188 -7.609375 3.328125 -9.671875 C 2.546875 -11.734375 2.15625 -14 2.15625 -16.46875 C 2.15625 -18.9375 2.546875 -21.203125 3.328125 -23.265625 C 4.117188 -25.328125 5.222656 -27.101562 6.640625 -28.59375 C 8.066406 -30.09375 9.773438 -31.253906 11.765625 -32.078125 C 13.765625 -32.910156 15.976562 -33.328125 18.40625 -33.328125 C 20.820312 -33.328125 23.03125 -32.910156 25.03125 -32.078125 C 27.03125 -31.253906 28.742188 -30.09375 30.171875 -28.59375 C 31.597656 -27.101562 32.703125 -25.328125 33.484375 -23.265625 C 34.265625 -21.203125 34.65625 -18.9375 34.65625 -16.46875 Z M 30.078125 -16.46875 C 30.078125 -18.488281 29.800781 -20.300781 29.25 -21.90625 C 28.695312 -23.519531 27.914062 -24.882812 26.90625 -26 C 25.894531 -27.113281 24.664062 -27.96875 23.21875 -28.5625 C 21.78125 -29.164062 20.175781 -29.46875 18.40625 -29.46875 C 16.632812 -29.46875 15.03125 -29.164062 13.59375 -28.5625 C 12.15625 -27.96875 10.925781 -27.113281 9.90625 -26 C 8.882812 -24.882812 8.097656 -23.519531 7.546875 -21.90625 C 6.992188 -20.300781 6.71875 -18.488281 6.71875 -16.46875 C 6.71875 -14.445312 6.992188 -12.632812 7.546875 -11.03125 C 8.097656 -9.425781 8.882812 -8.066406 9.90625 -6.953125 C 10.925781 -5.847656 12.15625 -5 13.59375 -4.40625 C 15.03125 -3.8125 16.632812 -3.515625 18.40625 -3.515625 C 20.175781 -3.515625 21.78125 -3.8125 23.21875 -4.40625 C 24.664062 -5 25.894531 -5.847656 26.90625 -6.953125 C 27.914062 -8.066406 28.695312 -9.425781 29.25 -11.03125 C 29.800781 -12.632812 30.078125 -14.445312 30.078125 -16.46875 Z M 30.078125 -16.46875" transform="translate(79.872 215.35)"/></g></g></g><g><g><g><path d="M 13.34375 -17 C 14.625 -17 15.757812 -17.15625 16.75 -17.46875 C 17.738281 -17.78125 18.566406 -18.222656 19.234375 -18.796875 C 19.898438 -19.378906 20.398438 -20.066406 20.734375 -20.859375 C 21.078125 -21.660156 21.25 -22.539062 21.25 -23.5 C 21.25 -25.46875 20.601562 -26.945312 19.3125 -27.9375 C 18.03125 -28.9375 16.101562 -29.4375 13.53125 -29.4375 L 8.640625 -29.4375 L 8.640625 -17 Z M 28.5625 0 L 24.609375 0 C 23.796875 0 23.195312 -0.3125 22.8125 -0.9375 L 14.265625 -12.71875 C 14.003906 -13.082031 13.722656 -13.34375 13.421875 -13.5 C 13.117188 -13.664062 12.65625 -13.75 12.03125 -13.75 L 8.640625 -13.75 L 8.640625 0 L 4.203125 0 L 4.203125 -32.953125 L 13.53125 -32.953125 C 15.613281 -32.953125 17.410156 -32.738281 18.921875 -32.3125 C 20.441406 -31.894531 21.695312 -31.285156 22.6875 -30.484375 C 23.675781 -29.691406 24.40625 -28.734375 24.875 -27.609375 C 25.351562 -26.484375 25.59375 -25.222656 25.59375 -23.828125 C 25.59375 -22.660156 25.410156 -21.570312 25.046875 -20.5625 C 24.679688 -19.550781 24.148438 -18.640625 23.453125 -17.828125 C 22.753906 -17.023438 21.898438 -16.335938 20.890625 -15.765625 C 19.890625 -15.203125 18.753906 -14.773438 17.484375 -14.484375 C 18.046875 -14.160156 18.535156 -13.695312 18.953125 -13.09375 Z M 28.5625 0" transform="translate(127.364 215.35)"/></g></g></g><g><g><g><path d="M 21.71875 -12.234375 L 16.53125 -25.640625 C 16.382812 -26.046875 16.222656 -26.507812 16.046875 -27.03125 C 15.878906 -27.5625 15.722656 -28.128906 15.578125 -28.734375 C 15.253906 -27.484375 14.921875 -26.445312 14.578125 -25.625 L 9.40625 -12.234375 Z M 31 0 L 27.546875 0 C 27.148438 0 26.828125 -0.0976562 26.578125 -0.296875 C 26.335938 -0.492188 26.15625 -0.75 26.03125 -1.0625 L 22.953125 -9.015625 L 8.171875 -9.015625 L 5.078125 -1.0625 C 4.984375 -0.78125 4.804688 -0.53125 4.546875 -0.3125 C 4.285156 -0.101562 3.96875 0 3.59375 0 L 0.140625 0 L 13.3125 -32.953125 L 17.828125 -32.953125 Z M 31 0" transform="translate(189.299 215.35)"/></g></g></g><g><g><g><path d="M 22.90625 -3.75 L 22.90625 0 L 4.203125 0 L 4.203125 -32.953125 L 8.640625 -32.953125 L 8.640625 -3.75 Z M 22.90625 -3.75" transform="translate(231.11 215.35)"/></g></g></g><g><g><g><path d="M 22.90625 -3.75 L 22.90625 0 L 4.203125 0 L 4.203125 -32.953125 L 8.640625 -32.953125 L 8.640625 -3.75 Z M 22.90625 -3.75" transform="translate(265.4 215.35)"/></g></g></g><g><g><g><path d="M 16.578125 -13.140625 L 16.578125 0 L 12.125 0 L 12.125 -13.140625 L 0.046875 -32.953125 L 3.953125 -32.953125 C 4.347656 -32.953125 4.660156 -32.859375 4.890625 -32.671875 C 5.128906 -32.484375 5.332031 -32.234375 5.5 -31.921875 L 13.046875 -19.109375 C 13.316406 -18.578125 13.566406 -18.078125 13.796875 -17.609375 C 14.023438 -17.140625 14.222656 -16.664062 14.390625 -16.1875 C 14.566406 -16.664062 14.757812 -17.140625 14.96875 -17.609375 C 15.1875 -18.078125 15.425781 -18.578125 15.6875 -19.109375 L 23.203125 -31.921875 C 23.335938 -32.179688 23.53125 -32.414062 23.78125 -32.625 C 24.03125 -32.84375 24.34375 -32.953125 24.71875 -32.953125 L 28.65625 -32.953125 Z M 16.578125 -13.140625" transform="translate(322.138 215.35)"/></g></g></g><g><g><g><path d="M 34.65625 -16.46875 C 34.65625 -14 34.265625 -11.734375 33.484375 -9.671875 C 32.703125 -7.609375 31.597656 -5.832031 30.171875 -4.34375 C 28.742188 -2.851562 27.03125 -1.695312 25.03125 -0.875 C 23.03125 -0.0625 20.820312 0.34375 18.40625 0.34375 C 15.976562 0.34375 13.765625 -0.0625 11.765625 -0.875 C 9.773438 -1.695312 8.066406 -2.851562 6.640625 -4.34375 C 5.222656 -5.832031 4.117188 -7.609375 3.328125 -9.671875 C 2.546875 -11.734375 2.15625 -14 2.15625 -16.46875 C 2.15625 -18.9375 2.546875 -21.203125 3.328125 -23.265625 C 4.117188 -25.328125 5.222656 -27.101562 6.640625 -28.59375 C 8.066406 -30.09375 9.773438 -31.253906 11.765625 -32.078125 C 13.765625 -32.910156 15.976562 -33.328125 18.40625 -33.328125 C 20.820312 -33.328125 23.03125 -32.910156 25.03125 -32.078125 C 27.03125 -31.253906 28.742188 -30.09375 30.171875 -28.59375 C 31.597656 -27.101562 32.703125 -25.328125 33.484375 -23.265625 C 34.265625 -21.203125 34.65625 -18.9375 34.65625 -16.46875 Z M 30.078125 -16.46875 C 30.078125 -18.488281 29.800781 -20.300781 29.25 -21.90625 C 28.695312 -23.519531 27.914062 -24.882812 26.90625 -26 C 25.894531 -27.113281 24.664062 -27.96875 23.21875 -28.5625 C 21.78125 -29.164062 20.175781 -29.46875 18.40625 -29.46875 C 16.632812 -29.46875 15.03125 -29.164062 13.59375 -28.5625 C 12.15625 -27.96875 10.925781 -27.113281 9.90625 -26 C 8.882812 -24.882812 8.097656 -23.519531 7.546875 -21.90625 C 6.992188 -20.300781 6.71875 -18.488281 6.71875 -16.46875 C 6.71875 -14.445312 6.992188 -12.632812 7.546875 -11.03125 C 8.097656 -9.425781 8.882812 -8.066406 9.90625 -6.953125 C 10.925781 -5.847656 12.15625 -5 13.59375 -4.40625 C 15.03125 -3.8125 16.632812 -3.515625 18.40625 -3.515625 C 20.175781 -3.515625 21.78125 -3.8125 23.21875 -4.40625 C 24.664062 -5 25.894531 -5.847656 26.90625 -6.953125 C 27.914062 -8.066406 28.695312 -9.425781 29.25 -11.03125 C 29.800781 -12.632812 30.078125 -14.445312 30.078125 -16.46875 Z M 30.078125 -16.46875" transform="translate(361.511 215.35)"/></g></g></g><g><g><g><path d="M 16.921875 -3.546875 C 18.285156 -3.546875 19.503906 -3.773438 20.578125 -4.234375 C 21.648438 -4.691406 22.554688 -5.332031 23.296875 -6.15625 C 24.046875 -6.988281 24.613281 -7.976562 25 -9.125 C 25.394531 -10.28125 25.59375 -11.546875 25.59375 -12.921875 L 25.59375 -32.953125 L 30.03125 -32.953125 L 30.03125 -12.921875 C 30.03125 -11.023438 29.726562 -9.265625 29.125 -7.640625 C 28.519531 -6.015625 27.65625 -4.609375 26.53125 -3.421875 C 25.40625 -2.234375 24.03125 -1.300781 22.40625 -0.625 C 20.78125 0.0507812 18.953125 0.390625 16.921875 0.390625 C 14.898438 0.390625 13.078125 0.0507812 11.453125 -0.625 C 9.828125 -1.300781 8.445312 -2.234375 7.3125 -3.421875 C 6.175781 -4.609375 5.304688 -6.015625 4.703125 -7.640625 C 4.097656 -9.265625 3.796875 -11.023438 3.796875 -12.921875 L 3.796875 -32.953125 L 8.234375 -32.953125 L 8.234375 -12.953125 C 8.234375 -11.566406 8.425781 -10.296875 8.8125 -9.140625 C 9.207031 -7.992188 9.773438 -7.003906 10.515625 -6.171875 C 11.265625 -5.347656 12.175781 -4.703125 13.25 -4.234375 C 14.332031 -3.773438 15.554688 -3.546875 16.921875 -3.546875 Z M 16.921875 -3.546875" transform="translate(409.003 215.35)"/></g></g></g><g><g><g><path d="M 13.34375 -17 C 14.625 -17 15.757812 -17.15625 16.75 -17.46875 C 17.738281 -17.78125 18.566406 -18.222656 19.234375 -18.796875 C 19.898438 -19.378906 20.398438 -20.066406 20.734375 -20.859375 C 21.078125 -21.660156 21.25 -22.539062 21.25 -23.5 C 21.25 -25.46875 20.601562 -26.945312 19.3125 -27.9375 C 18.03125 -28.9375 16.101562 -29.4375 13.53125 -29.4375 L 8.640625 -29.4375 L 8.640625 -17 Z M 28.5625 0 L 24.609375 0 C 23.796875 0 23.195312 -0.3125 22.8125 -0.9375 L 14.265625 -12.71875 C 14.003906 -13.082031 13.722656 -13.34375 13.421875 -13.5 C 13.117188 -13.664062 12.65625 -13.75 12.03125 -13.75 L 8.640625 -13.75 L 8.640625 0 L 4.203125 0 L 4.203125 -32.953125 L 13.53125 -32.953125 C 15.613281 -32.953125 17.410156 -32.738281 18.921875 -32.3125 C 20.441406 -31.894531 21.695312 -31.285156 22.6875 -30.484375 C 23.675781 -29.691406 24.40625 -28.734375 24.875 -27.609375 C 25.351562 -26.484375 25.59375 -25.222656 25.59375 -23.828125 C 25.59375 -22.660156 25.410156 -21.570312 25.046875 -20.5625 C 24.679688 -19.550781 24.148438 -18.640625 23.453125 -17.828125 C 22.753906 -17.023438 21.898438 -16.335938 20.890625 -15.765625 C 19.890625 -15.203125 18.753906 -14.773438 17.484375 -14.484375 C 18.046875 -14.160156 18.535156 -13.695312 18.953125 -13.09375 Z M 28.5625 0" transform="translate(453.505 215.35)"/></g></g></g><g><g><g><path d="M 13.9375 -15.875 C 15.207031 -15.875 16.328125 -16.039062 17.296875 -16.375 C 18.273438 -16.707031 19.097656 -17.175781 19.765625 -17.78125 C 20.429688 -18.394531 20.929688 -19.125 21.265625 -19.96875 C 21.609375 -20.8125 21.78125 -21.738281 21.78125 -22.75 C 21.78125 -24.84375 21.128906 -26.476562 19.828125 -27.65625 C 18.535156 -28.84375 16.570312 -29.4375 13.9375 -29.4375 L 8.640625 -29.4375 L 8.640625 -15.875 Z M 13.9375 -32.953125 C 16.019531 -32.953125 17.832031 -32.710938 19.375 -32.234375 C 20.914062 -31.753906 22.191406 -31.066406 23.203125 -30.171875 C 24.210938 -29.285156 24.96875 -28.210938 25.46875 -26.953125 C 25.96875 -25.691406 26.21875 -24.289062 26.21875 -22.75 C 26.21875 -21.21875 25.945312 -19.8125 25.40625 -18.53125 C 24.875 -17.257812 24.085938 -16.164062 23.046875 -15.25 C 22.015625 -14.332031 20.734375 -13.613281 19.203125 -13.09375 C 17.679688 -12.582031 15.925781 -12.328125 13.9375 -12.328125 L 8.640625 -12.328125 L 8.640625 0 L 4.203125 0 L 4.203125 -32.953125 Z M 13.9375 -32.953125" transform="translate(515.44 215.35)"/></g></g></g><g><g><g><path d="M 22.90625 -3.75 L 22.90625 0 L 4.203125 0 L 4.203125 -32.953125 L 8.640625 -32.953125 L 8.640625 -3.75 Z M 22.90625 -3.75" transform="translate(553.732 215.35)"/></g></g></g><g><g><g><path d="M 16.921875 -3.546875 C 18.285156 -3.546875 19.503906 -3.773438 20.578125 -4.234375 C 21.648438 -4.691406 22.554688 -5.332031 23.296875 -6.15625 C 24.046875 -6.988281 24.613281 -7.976562 25 -9.125 C 25.394531 -10.28125 25.59375 -11.546875 25.59375 -12.921875 L 25.59375 -32.953125 L 30.03125 -32.953125 L 30.03125 -12.921875 C 30.03125 -11.023438 29.726562 -9.265625 29.125 -7.640625 C 28.519531 -6.015625 27.65625 -4.609375 26.53125 -3.421875 C 25.40625 -2.234375 24.03125 -1.300781 22.40625 -0.625 C 20.78125 0.0507812 18.953125 0.390625 16.921875 0.390625 C 14.898438 0.390625 13.078125 0.0507812 11.453125 -0.625 C 9.828125 -1.300781 8.445312 -2.234375 7.3125 -3.421875 C 6.175781 -4.609375 5.304688 -6.015625 4.703125 -7.640625 C 4.097656 -9.265625 3.796875 -11.023438 3.796875 -12.921875 L 3.796875 -32.953125 L 8.234375 -32.953125 L 8.234375 -12.953125 C 8.234375 -11.566406 8.425781 -10.296875 8.8125 -9.140625 C 9.207031 -7.992188 9.773438 -7.003906 10.515625 -6.171875 C 11.265625 -5.347656 12.175781 -4.703125 13.25 -4.234375 C 14.332031 -3.773438 15.554688 -3.546875 16.921875 -3.546875 Z M 16.921875 -3.546875" transform="translate(588.023 215.35)"/></g></g></g><g><g><g><path d="M 38.5 -32.953125 L 38.5 0 L 34.59375 0 L 34.59375 -24.21875 C 34.59375 -24.539062 34.601562 -24.882812 34.625 -25.25 C 34.644531 -25.625 34.671875 -26 34.703125 -26.375 L 23.390625 -5.765625 C 23.035156 -5.078125 22.5 -4.734375 21.78125 -4.734375 L 21.140625 -4.734375 C 20.421875 -4.734375 19.882812 -5.078125 19.53125 -5.765625 L 7.984375 -26.46875 C 8.078125 -25.65625 8.125 -24.90625 8.125 -24.21875 L 8.125 0 L 4.203125 0 L 4.203125 -32.953125 L 7.5 -32.953125 C 7.894531 -32.953125 8.195312 -32.914062 8.40625 -32.84375 C 8.625 -32.769531 8.832031 -32.554688 9.03125 -32.203125 L 20.421875 -11.90625 C 20.609375 -11.539062 20.789062 -11.160156 20.96875 -10.765625 C 21.144531 -10.367188 21.304688 -9.960938 21.453125 -9.546875 C 21.609375 -9.960938 21.769531 -10.375 21.9375 -10.78125 C 22.101562 -11.1875 22.289062 -11.570312 22.5 -11.9375 L 33.671875 -32.203125 C 33.859375 -32.554688 34.0625 -32.769531 34.28125 -32.84375 C 34.5 -32.914062 34.8125 -32.953125 35.21875 -32.953125 Z M 38.5 -32.953125" transform="translate(632.525 215.35)"/></g></g></g><g><g><g><path d="M 15.78125 -3.546875 C 17.050781 -3.546875 18.144531 -3.691406 19.0625 -3.984375 C 19.988281 -4.273438 20.742188 -4.679688 21.328125 -5.203125 C 21.921875 -5.734375 22.351562 -6.363281 22.625 -7.09375 C 22.90625 -7.820312 23.046875 -8.625 23.046875 -9.5 C 23.046875 -11.195312 22.4375 -12.539062 21.21875 -13.53125 C 20.007812 -14.519531 18.195312 -15.015625 15.78125 -15.015625 L 8.640625 -15.015625 L 8.640625 -3.546875 Z M 8.640625 -29.4375 L 8.640625 -18.1875 L 14.53125 -18.1875 C 15.789062 -18.1875 16.882812 -18.320312 17.8125 -18.59375 C 18.738281 -18.875 19.503906 -19.257812 20.109375 -19.75 C 20.710938 -20.25 21.160156 -20.847656 21.453125 -21.546875 C 21.742188 -22.242188 21.890625 -23.003906 21.890625 -23.828125 C 21.890625 -25.773438 21.304688 -27.195312 20.140625 -28.09375 C 18.984375 -28.988281 17.175781 -29.4375 14.71875 -29.4375 Z M 14.71875 -32.953125 C 16.738281 -32.953125 18.484375 -32.753906 19.953125 -32.359375 C 21.421875 -31.960938 22.625 -31.394531 23.5625 -30.65625 C 24.507812 -29.925781 25.203125 -29.023438 25.640625 -27.953125 C 26.085938 -26.890625 26.3125 -25.691406 26.3125 -24.359375 C 26.3125 -23.546875 26.179688 -22.765625 25.921875 -22.015625 C 25.671875 -21.273438 25.289062 -20.582031 24.78125 -19.9375 C 24.28125 -19.289062 23.644531 -18.710938 22.875 -18.203125 C 22.101562 -17.691406 21.191406 -17.273438 20.140625 -16.953125 C 22.566406 -16.492188 24.390625 -15.628906 25.609375 -14.359375 C 26.828125 -13.097656 27.4375 -11.441406 27.4375 -9.390625 C 27.4375 -7.992188 27.175781 -6.71875 26.65625 -5.5625 C 26.144531 -4.414062 25.394531 -3.425781 24.40625 -2.59375 C 23.425781 -1.769531 22.210938 -1.128906 20.765625 -0.671875 C 19.328125 -0.222656 17.6875 0 15.84375 0 L 4.203125 0 L 4.203125 -32.953125 Z M 14.71875 -32.953125" transform="translate(685.904 215.35)"/></g></g></g><g><g><g><path d="M 8.671875 0 L 4.203125 0 L 4.203125 -32.953125 L 8.671875 -32.953125 Z M 8.671875 0" transform="translate(726.312 215.35)"/></g></g></g><g><g><g><path d="M 30.90625 -32.953125 L 30.90625 0 L 28.6875 0 C 28.332031 0 28.035156 -0.0625 27.796875 -0.1875 C 27.554688 -0.3125 27.320312 -0.519531 27.09375 -0.8125 L 8.03125 -25.640625 C 8.0625 -25.253906 8.082031 -24.878906 8.09375 -24.515625 C 8.113281 -24.148438 8.125 -23.804688 8.125 -23.484375 L 8.125 0 L 4.203125 0 L 4.203125 -32.953125 L 6.515625 -32.953125 C 6.710938 -32.953125 6.878906 -32.941406 7.015625 -32.921875 C 7.148438 -32.898438 7.269531 -32.863281 7.375 -32.8125 C 7.488281 -32.757812 7.597656 -32.679688 7.703125 -32.578125 C 7.804688 -32.484375 7.921875 -32.359375 8.046875 -32.203125 L 27.109375 -7.390625 C 27.085938 -7.785156 27.0625 -8.171875 27.03125 -8.546875 C 27.007812 -8.921875 27 -9.273438 27 -9.609375 L 27 -32.953125 Z M 30.90625 -32.953125" transform="translate(749.863 215.35)"/></g></g></g><g><g><g><path d="M 30.984375 -15.84375 L 30.984375 -3.203125 C 29.328125 -2.003906 27.554688 -1.109375 25.671875 -0.515625 C 23.796875 0.078125 21.738281 0.375 19.5 0.375 C 16.851562 0.375 14.460938 -0.0351562 12.328125 -0.859375 C 10.191406 -1.679688 8.367188 -2.832031 6.859375 -4.3125 C 5.347656 -5.789062 4.1875 -7.5625 3.375 -9.625 C 2.5625 -11.695312 2.15625 -13.976562 2.15625 -16.46875 C 2.15625 -18.976562 2.550781 -21.269531 3.34375 -23.34375 C 4.132812 -25.414062 5.257812 -27.191406 6.71875 -28.671875 C 8.175781 -30.148438 9.945312 -31.296875 12.03125 -32.109375 C 14.113281 -32.921875 16.441406 -33.328125 19.015625 -33.328125 C 20.316406 -33.328125 21.523438 -33.226562 22.640625 -33.03125 C 23.765625 -32.84375 24.800781 -32.566406 25.75 -32.203125 C 26.707031 -31.847656 27.59375 -31.410156 28.40625 -30.890625 C 29.21875 -30.378906 29.976562 -29.800781 30.6875 -29.15625 L 29.421875 -27.140625 C 29.222656 -26.835938 28.960938 -26.640625 28.640625 -26.546875 C 28.328125 -26.460938 27.976562 -26.535156 27.59375 -26.765625 C 27.226562 -26.984375 26.804688 -27.242188 26.328125 -27.546875 C 25.859375 -27.859375 25.28125 -28.15625 24.59375 -28.4375 C 23.914062 -28.71875 23.113281 -28.957031 22.1875 -29.15625 C 21.257812 -29.363281 20.160156 -29.46875 18.890625 -29.46875 C 17.023438 -29.46875 15.34375 -29.160156 13.84375 -28.546875 C 12.34375 -27.941406 11.0625 -27.078125 10 -25.953125 C 8.945312 -24.828125 8.132812 -23.460938 7.5625 -21.859375 C 7 -20.253906 6.71875 -18.457031 6.71875 -16.46875 C 6.71875 -14.394531 7.007812 -12.539062 7.59375 -10.90625 C 8.1875 -9.28125 9.03125 -7.894531 10.125 -6.75 C 11.226562 -5.601562 12.5625 -4.734375 14.125 -4.140625 C 15.6875 -3.546875 17.441406 -3.25 19.390625 -3.25 C 20.921875 -3.25 22.28125 -3.421875 23.46875 -3.765625 C 24.65625 -4.109375 25.816406 -4.585938 26.953125 -5.203125 L 26.953125 -12.4375 L 21.828125 -12.4375 C 21.535156 -12.4375 21.300781 -12.519531 21.125 -12.6875 C 20.945312 -12.863281 20.859375 -13.070312 20.859375 -13.3125 L 20.859375 -15.84375 Z M 30.984375 -15.84375" transform="translate(795.653 215.35)"/></g></g></g><g><g><g><path d="M 30.90625 -32.953125 L 30.90625 0 L 28.6875 0 C 28.332031 0 28.035156 -0.0625 27.796875 -0.1875 C 27.554688 -0.3125 27.320312 -0.519531 27.09375 -0.8125 L 8.03125 -25.640625 C 8.0625 -25.253906 8.082031 -24.878906 8.09375 -24.515625 C 8.113281 -24.148438 8.125 -23.804688 8.125 -23.484375 L 8.125 0 L 4.203125 0 L 4.203125 -32.953125 L 6.515625 -32.953125 C 6.710938 -32.953125 6.878906 -32.941406 7.015625 -32.921875 C 7.148438 -32.898438 7.269531 -32.863281 7.375 -32.8125 C 7.488281 -32.757812 7.597656 -32.679688 7.703125 -32.578125 C 7.804688 -32.484375 7.921875 -32.359375 8.046875 -32.203125 L 27.109375 -7.390625 C 27.085938 -7.785156 27.0625 -8.171875 27.03125 -8.546875 C 27.007812 -8.921875 27 -9.273438 27 -9.609375 L 27 -32.953125 Z M 30.90625 -32.953125" transform="translate(862.371 215.35)"/></g></g></g><g><g><g><path d="M 24.546875 -3.640625 L 24.515625 0 L 4.203125 0 L 4.203125 -32.953125 L 24.515625 -32.953125 L 24.515625 -29.328125 L 8.671875 -29.328125 L 8.671875 -18.375 L 21.5 -18.375 L 21.5 -14.875 L 8.671875 -14.875 L 8.671875 -3.640625 Z M 24.546875 -3.640625" transform="translate(908.161 215.35)"/></g></g></g><g><g><g><path d="M 24.546875 -3.640625 L 24.515625 0 L 4.203125 0 L 4.203125 -32.953125 L 24.515625 -32.953125 L 24.515625 -29.328125 L 8.671875 -29.328125 L 8.671875 -18.375 L 21.5 -18.375 L 21.5 -14.875 L 8.671875 -14.875 L 8.671875 -3.640625 Z M 24.546875 -3.640625" transform="translate(945.396 215.35)"/></g></g></g><g><g><g><path d="M 32.78125 -16.46875 C 32.78125 -14 32.382812 -11.75 31.59375 -9.71875 C 30.8125 -7.695312 29.707031 -5.96875 28.28125 -4.53125 C 26.863281 -3.09375 25.148438 -1.976562 23.140625 -1.1875 C 21.140625 -0.394531 18.929688 0 16.515625 0 L 4.203125 0 L 4.203125 -32.953125 L 16.515625 -32.953125 C 18.929688 -32.953125 21.140625 -32.554688 23.140625 -31.765625 C 25.148438 -30.984375 26.863281 -29.867188 28.28125 -28.421875 C 29.707031 -26.972656 30.8125 -25.234375 31.59375 -23.203125 C 32.382812 -21.179688 32.78125 -18.9375 32.78125 -16.46875 Z M 28.203125 -16.46875 C 28.203125 -18.488281 27.925781 -20.296875 27.375 -21.890625 C 26.820312 -23.484375 26.035156 -24.832031 25.015625 -25.9375 C 24.003906 -27.039062 22.78125 -27.882812 21.34375 -28.46875 C 19.90625 -29.050781 18.296875 -29.34375 16.515625 -29.34375 L 8.671875 -29.34375 L 8.671875 -3.609375 L 16.515625 -3.609375 C 18.296875 -3.609375 19.90625 -3.898438 21.34375 -4.484375 C 22.78125 -5.066406 24.003906 -5.90625 25.015625 -7 C 26.035156 -8.09375 26.820312 -9.4375 27.375 -11.03125 C 27.925781 -12.632812 28.203125 -14.445312 28.203125 -16.46875 Z M 28.203125 -16.46875" transform="translate(982.63 215.35)"/></g></g></g><g><g><g><path d="M 21.0625 -27.8125 C 20.925781 -27.582031 20.773438 -27.40625 20.609375 -27.28125 C 20.453125 -27.164062 20.257812 -27.109375 20.03125 -27.109375 C 19.769531 -27.109375 19.460938 -27.238281 19.109375 -27.5 C 18.753906 -27.769531 18.3125 -28.0625 17.78125 -28.375 C 17.257812 -28.6875 16.625 -28.972656 15.875 -29.234375 C 15.132812 -29.492188 14.234375 -29.625 13.171875 -29.625 C 12.179688 -29.625 11.304688 -29.488281 10.546875 -29.21875 C 9.785156 -28.945312 9.144531 -28.582031 8.625 -28.125 C 8.113281 -27.664062 7.726562 -27.125 7.46875 -26.5 C 7.207031 -25.882812 7.078125 -25.21875 7.078125 -24.5 C 7.078125 -23.570312 7.300781 -22.804688 7.75 -22.203125 C 8.207031 -21.597656 8.804688 -21.082031 9.546875 -20.65625 C 10.296875 -20.226562 11.140625 -19.851562 12.078125 -19.53125 C 13.023438 -19.21875 13.992188 -18.894531 14.984375 -18.5625 C 15.972656 -18.226562 16.9375 -17.847656 17.875 -17.421875 C 18.820312 -17.003906 19.664062 -16.472656 20.40625 -15.828125 C 21.15625 -15.179688 21.753906 -14.390625 22.203125 -13.453125 C 22.660156 -12.515625 22.890625 -11.363281 22.890625 -10 C 22.890625 -8.5625 22.640625 -7.207031 22.140625 -5.9375 C 21.648438 -4.675781 20.929688 -3.578125 19.984375 -2.640625 C 19.046875 -1.703125 17.890625 -0.960938 16.515625 -0.421875 C 15.148438 0.109375 13.59375 0.375 11.84375 0.375 C 9.695312 0.375 7.75 -0.0078125 6 -0.78125 C 4.25 -1.5625 2.753906 -2.613281 1.515625 -3.9375 L 2.8125 -6.046875 C 2.925781 -6.210938 3.070312 -6.351562 3.25 -6.46875 C 3.425781 -6.582031 3.625 -6.640625 3.84375 -6.640625 C 4.039062 -6.640625 4.265625 -6.554688 4.515625 -6.390625 C 4.773438 -6.234375 5.0625 -6.03125 5.375 -5.78125 C 5.695312 -5.539062 6.066406 -5.273438 6.484375 -4.984375 C 6.898438 -4.691406 7.367188 -4.421875 7.890625 -4.171875 C 8.421875 -3.929688 9.023438 -3.726562 9.703125 -3.5625 C 10.378906 -3.40625 11.140625 -3.328125 11.984375 -3.328125 C 13.035156 -3.328125 13.972656 -3.472656 14.796875 -3.765625 C 15.628906 -4.054688 16.332031 -4.46875 16.90625 -5 C 17.488281 -5.53125 17.929688 -6.160156 18.234375 -6.890625 C 18.546875 -7.628906 18.703125 -8.453125 18.703125 -9.359375 C 18.703125 -10.359375 18.472656 -11.175781 18.015625 -11.8125 C 17.566406 -12.445312 16.972656 -12.976562 16.234375 -13.40625 C 15.503906 -13.832031 14.660156 -14.195312 13.703125 -14.5 C 12.753906 -14.800781 11.789062 -15.109375 10.8125 -15.421875 C 9.832031 -15.734375 8.863281 -16.097656 7.90625 -16.515625 C 6.957031 -16.929688 6.113281 -17.46875 5.375 -18.125 C 4.644531 -18.78125 4.050781 -19.601562 3.59375 -20.59375 C 3.144531 -21.582031 2.921875 -22.804688 2.921875 -24.265625 C 2.921875 -25.429688 3.144531 -26.554688 3.59375 -27.640625 C 4.050781 -28.734375 4.710938 -29.703125 5.578125 -30.546875 C 6.441406 -31.390625 7.503906 -32.0625 8.765625 -32.5625 C 10.035156 -33.070312 11.492188 -33.328125 13.140625 -33.328125 C 14.972656 -33.328125 16.644531 -33.035156 18.15625 -32.453125 C 19.664062 -31.867188 21 -31.023438 22.15625 -29.921875 Z M 21.0625 -27.8125" transform="translate(1028.282 215.35)"/></g></g></g></svg>